<svg data-v-423bf9ae="" xmlns="http://www.w3.org/2000/svg" viewBox="0 0 247.17584756240862 60" class="font"><!----><!----><!----><g data-v-423bf9ae="" id="679edd42-9d83-4a7b-b2d9-1940d0e55a0f" fill="white" transform="matrix(6.030150291393008,0,0,6.030150291393008,-8.020100758406954,-4.4020093508957245)"><path d="M2.30 6.06L2.30 6.06L2.30 10.50L1.33 10.50L1.33 0.73L2.30 0.73L2.30 5.21L4.40 5.21L7.57 0.73L8.69 0.73L5.18 5.66L8.86 10.50L7.69 10.50L4.30 6.06L2.30 6.06ZM12.75 3.19L12.75 3.19L12.75 3.19Q12.88 3.19 13.10 3.21L13.10 3.21L13.10 3.21Q13.33 3.22 13.59 3.30L13.59 3.30L13.59 3.30Q13.85 3.37 14.11 3.54L14.11 3.54L14.11 3.54Q14.38 3.70 14.59 3.98L14.59 3.98L14.59 3.98Q14.81 4.26 14.95 4.68L14.95 4.68L14.95 4.68Q15.09 5.11 15.09 5.73L15.09 5.73L15.09 10.50L14.34 10.50L14.25 9.35L14.25 9.35Q14.25 9.35 14.13 9.56L14.13 9.56L14.13 9.56Q14 9.77 13.73 10.02L13.73 10.02L13.73 10.02Q13.47 10.28 13.05 10.48L13.05 10.48L13.05 10.48Q12.64 10.68 12.05 10.68L12.05 10.68L12.05 10.68Q10.89 10.68 10.23 10.12L10.23 10.12L10.23 10.12Q9.56 9.55 9.63 8.46L9.63 8.46L9.63 8.46Q9.70 7.22 10.79 6.66L10.79 6.66L10.79 6.66Q11.89 6.10 14.20 6.15L14.20 6.15L14.20 5.71L14.20 5.71Q14.20 5.00 13.99 4.63L13.99 4.63L13.99 4.63Q13.78 4.27 13.50 4.12L13.50 4.12L13.50 4.12Q13.22 3.98 12.95 3.97L12.95 3.97L12.95 3.97Q12.68 3.96 12.57 3.96L12.57 3.96L12.57 3.96Q12.05 3.96 11.66 4.06L11.66 4.06L11.66 4.06Q11.27 4.16 11.00 4.27L11.00 4.27L11.00 4.27Q10.68 4.41 10.46 4.56L10.46 4.56L10.46 3.68L10.46 3.68Q10.79 3.56 11.16 3.44L11.16 3.44L11.16 3.44Q11.48 3.35 11.89 3.27L11.89 3.27L11.89 3.27Q12.31 3.19 12.75 3.19ZM12.01 9.93L12.01 9.93L12.01 9.93Q12.78 9.93 13.22 9.65L13.22 9.65L13.22 9.65Q13.66 9.38 13.88 8.97L13.88 8.97L13.88 8.97Q14.10 8.55 14.15 8.09L14.15 8.09L14.15 8.09Q14.20 7.62 14.20 7.21L14.20 7.21L14.20 6.92L13.40 6.92L13.40 6.92Q13.12 6.92 12.64 6.96L12.64 6.96L12.64 6.96Q12.17 7.01 11.71 7.17L11.71 7.17L11.71 7.17Q11.26 7.34 10.93 7.64L10.93 7.64L10.93 7.64Q10.60 7.94 10.60 8.46L10.60 8.46L10.60 8.46Q10.60 9.24 11.00 9.58L11.00 9.58L11.00 9.58Q11.40 9.93 12.01 9.93ZM20.37 3.29L20.37 4.20L20.37 4.20Q20.23 4.19 20.10 4.16L20.10 4.16L20.10 4.16Q19.99 4.14 19.89 4.13L19.89 4.13L19.89 4.13Q19.78 4.12 19.74 4.12L19.74 4.12L19.74 4.12Q19.19 4.12 18.85 4.40L18.85 4.40L18.85 4.40Q18.51 4.68 18.30 5.10L18.30 5.10L18.30 5.10Q18.10 5.53 18.02 6.03L18.02 6.03L18.02 6.03Q17.95 6.54 17.95 6.99L17.95 6.99L17.95 10.50L17.07 10.50L17.07 3.36L17.75 3.36L17.91 4.75L17.91 4.75Q18.06 4.40 18.25 4.06L18.25 4.06L18.25 4.06Q18.44 3.72 18.72 3.51L18.72 3.51L18.72 3.51Q19.00 3.29 19.40 3.21L19.40 3.21L19.40 3.21Q19.80 3.14 20.37 3.29L20.37 3.29ZM24.14 10.68L24.14 10.68L24.14 10.68Q23.48 10.68 23.03 10.47L23.03 10.47L23.03 10.47Q22.58 10.26 22.30 9.86L22.30 9.86L22.30 9.86Q22.02 9.45 21.90 8.86L21.90 8.86L21.90 8.86Q21.77 8.26 21.77 7.50L21.77 7.50L21.77 3.36L22.65 3.36L22.65 7.45L22.65 7.45Q22.65 8.72 23.00 9.32L23.00 9.32L23.00 9.32Q23.35 9.91 24.23 9.93L24.23 9.93L24.23 9.93Q24.79 9.93 25.23 9.72L25.23 9.72L25.23 9.72Q25.66 9.52 25.96 9.13L25.96 9.13L25.96 9.13Q26.26 8.75 26.42 8.20L26.42 8.20L26.42 8.20Q26.57 7.66 26.57 7L26.57 7L26.57 3.36L27.45 3.36L27.45 10.50L26.70 10.50L26.57 9.31L26.57 9.31Q26.24 9.94 25.61 10.31L25.61 10.31L25.61 10.31Q24.98 10.68 24.14 10.68ZM32.87 3.19L32.87 3.19L32.87 3.19Q33.53 3.19 33.98 3.40L33.98 3.40L33.98 3.40Q34.43 3.61 34.71 4.02L34.71 4.02L34.71 4.02Q34.99 4.42 35.11 5.02L35.11 5.02L35.11 5.02Q35.24 5.61 35.24 6.37L35.24 6.37L35.24 10.50L34.36 10.50L34.36 6.43L34.36 6.43Q34.36 5.15 34.01 4.56L34.01 4.56L34.01 4.56Q33.66 3.96 32.77 3.95L32.77 3.95L32.77 3.95Q32.21 3.95 31.78 4.15L31.78 4.15L31.78 4.15Q31.35 4.35 31.04 4.74L31.04 4.74L31.04 4.74Q30.74 5.12 30.59 5.67L30.59 5.67L30.59 5.67Q30.44 6.22 30.44 6.87L30.44 6.87L30.44 10.50L29.55 10.50L29.55 3.36L30.31 3.36L30.44 4.56L30.44 4.56Q30.77 3.93 31.40 3.56L31.40 3.56L31.40 3.56Q32.03 3.19 32.87 3.19ZM39.98 3.19L39.98 3.19L39.98 3.19Q40.11 3.19 40.33 3.21L40.33 3.21L40.33 3.21Q40.56 3.22 40.82 3.30L40.82 3.30L40.82 3.30Q41.08 3.37 41.34 3.54L41.34 3.54L41.34 3.54Q41.61 3.70 41.82 3.98L41.82 3.98L41.82 3.98Q42.04 4.26 42.18 4.68L42.18 4.68L42.18 4.68Q42.32 5.11 42.32 5.73L42.32 5.73L42.32 10.50L41.57 10.50L41.48 9.35L41.48 9.35Q41.48 9.35 41.36 9.56L41.36 9.56L41.36 9.56Q41.23 9.77 40.96 10.02L40.96 10.02L40.96 10.02Q40.70 10.28 40.28 10.48L40.28 10.48L40.28 10.48Q39.87 10.68 39.28 10.68L39.28 10.68L39.28 10.68Q38.12 10.68 37.46 10.12L37.46 10.12L37.46 10.12Q36.79 9.55 36.86 8.46L36.86 8.46L36.86 8.46Q36.93 7.22 38.02 6.66L38.02 6.66L38.02 6.66Q39.12 6.10 41.43 6.15L41.43 6.15L41.43 5.71L41.43 5.71Q41.43 5.00 41.22 4.63L41.22 4.63L41.22 4.63Q41.01 4.27 40.73 4.12L40.73 4.12L40.73 4.12Q40.45 3.98 40.18 3.97L40.18 3.97L40.18 3.97Q39.91 3.96 39.80 3.96L39.80 3.96L39.80 3.96Q39.28 3.96 38.89 4.06L38.89 4.06L38.89 4.06Q38.50 4.16 38.23 4.27L38.23 4.27L38.23 4.27Q37.91 4.41 37.69 4.56L37.69 4.56L37.69 3.68L37.69 3.68Q38.02 3.56 38.39 3.44L38.39 3.44L38.39 3.44Q38.71 3.35 39.12 3.27L39.12 3.27L39.12 3.27Q39.54 3.19 39.98 3.19ZM39.24 9.93L39.24 9.93L39.24 9.93Q40.01 9.93 40.45 9.65L40.45 9.65L40.45 9.65Q40.89 9.38 41.11 8.97L41.11 8.97L41.11 8.97Q41.33 8.55 41.38 8.09L41.38 8.09L41.38 8.09Q41.43 7.62 41.43 7.21L41.43 7.21L41.43 6.92L40.63 6.92L40.63 6.92Q40.35 6.92 39.87 6.96L39.87 6.96L39.87 6.96Q39.40 7.01 38.94 7.17L38.94 7.17L38.94 7.17Q38.49 7.34 38.16 7.64L38.16 7.64L38.16 7.64Q37.83 7.94 37.83 8.46L37.83 8.46L37.83 8.46Q37.83 9.24 38.23 9.58L38.23 9.58L38.23 9.58Q38.63 9.93 39.24 9.93Z"></path></g><!----><!----></svg>